<mxfile host="65bd71144e">
    <diagram name="Page-1" id="HeY2LeON4eZHRDTgvdxS">
        <mxGraphModel dx="1849" dy="1782" grid="1" gridSize="10" guides="1" tooltips="1" connect="1" arrows="1" fold="1" page="1" pageScale="1" pageWidth="827" pageHeight="1169" background="#ffffff" math="0" shadow="0">
            <root>
                <mxCell id="0"/>
                <mxCell id="1" parent="0"/>
                <mxCell id="4za64zZnmbUG_yDpErvb-1" value="Rucio" style="rounded=0;whiteSpace=wrap;html=1;fillColor=#dae8fc;gradientColor=#7ea6e0;strokeColor=#6c8ebf;verticalAlign=top;" parent="1" vertex="1">
                    <mxGeometry x="-80" y="-100" width="500" height="290" as="geometry"/>
                </mxCell>
                <mxCell id="4za64zZnmbUG_yDpErvb-91" style="edgeStyle=orthogonalEdgeStyle;rounded=0;orthogonalLoop=1;jettySize=auto;html=1;endArrow=halfCircle;endFill=0;" parent="1" edge="1">
                    <mxGeometry relative="1" as="geometry">
                        <mxPoint x="290" y="210" as="targetPoint"/>
                        <mxPoint x="290" y="290" as="sourcePoint"/>
                    </mxGeometry>
                </mxCell>
                <mxCell id="4za64zZnmbUG_yDpErvb-92" value="&lt;span style=&quot;color: rgb(63, 63, 63); font-size: 12px;&quot;&gt;Operator, Developer, User&lt;/span&gt;" style="edgeLabel;html=1;align=center;verticalAlign=middle;resizable=0;points=[];" parent="4za64zZnmbUG_yDpErvb-91" vertex="1" connectable="0">
                    <mxGeometry x="0.025" relative="1" as="geometry">
                        <mxPoint as="offset"/>
                    </mxGeometry>
                </mxCell>
                <mxCell id="4za64zZnmbUG_yDpErvb-33" value="Legend" style="shape=table;startSize=30;container=1;collapsible=0;childLayout=tableLayout;fontSize=16;align=left;verticalAlign=top;fillColor=none;strokeColor=none;fontColor=#4D4D4D;fontStyle=1;spacingLeft=6;spacing=0;resizable=0;" parent="1" vertex="1">
                    <mxGeometry y="210" width="180" height="95" as="geometry"/>
                </mxCell>
                <mxCell id="4za64zZnmbUG_yDpErvb-34" value="" style="shape=tableRow;horizontal=0;startSize=0;swimlaneHead=0;swimlaneBody=0;strokeColor=inherit;top=0;left=0;bottom=0;right=0;collapsible=0;dropTarget=0;fillColor=none;points=[[0,0.5],[1,0.5]];portConstraint=eastwest;fontSize=12;" parent="4za64zZnmbUG_yDpErvb-33" vertex="1">
                    <mxGeometry y="30" width="180" height="35" as="geometry"/>
                </mxCell>
                <mxCell id="4za64zZnmbUG_yDpErvb-35" value="Internal components" style="shape=partialRectangle;html=1;whiteSpace=wrap;connectable=0;strokeColor=#666666;overflow=hidden;fillColor=#f5f5f5;top=0;left=0;bottom=0;right=0;pointerEvents=1;fontSize=12;align=left;gradientColor=#b3b3b3;spacingLeft=10;spacingRight=4;" parent="4za64zZnmbUG_yDpErvb-34" vertex="1">
                    <mxGeometry width="180" height="35" as="geometry">
                        <mxRectangle width="180" height="35" as="alternateBounds"/>
                    </mxGeometry>
                </mxCell>
                <mxCell id="4za64zZnmbUG_yDpErvb-36" value="" style="shape=tableRow;horizontal=0;startSize=0;swimlaneHead=0;swimlaneBody=0;strokeColor=#6c8ebf;top=0;left=0;bottom=0;right=0;collapsible=0;dropTarget=0;fillColor=#dae8fc;points=[[0,0.5],[1,0.5]];portConstraint=eastwest;fontSize=12;gradientColor=#7ea6e0;" parent="4za64zZnmbUG_yDpErvb-33" vertex="1">
                    <mxGeometry y="65" width="180" height="30" as="geometry"/>
                </mxCell>
                <mxCell id="4za64zZnmbUG_yDpErvb-37" value="Internal System" style="shape=partialRectangle;html=1;whiteSpace=wrap;connectable=0;strokeColor=#6c8ebf;overflow=hidden;fillColor=#dae8fc;top=0;left=0;bottom=0;right=0;pointerEvents=1;fontSize=12;align=left;gradientColor=#7ea6e0;spacingLeft=10;spacingRight=4;" parent="4za64zZnmbUG_yDpErvb-36" vertex="1">
                    <mxGeometry width="180" height="30" as="geometry">
                        <mxRectangle width="180" height="30" as="alternateBounds"/>
                    </mxGeometry>
                </mxCell>
                <mxCell id="4za64zZnmbUG_yDpErvb-55" style="edgeStyle=orthogonalEdgeStyle;rounded=0;orthogonalLoop=1;jettySize=auto;html=1;endArrow=circle;endFill=0;" parent="1" source="4za64zZnmbUG_yDpErvb-47" edge="1">
                    <mxGeometry relative="1" as="geometry">
                        <mxPoint x="140" y="10" as="targetPoint"/>
                    </mxGeometry>
                </mxCell>
                <mxCell id="4za64zZnmbUG_yDpErvb-57" style="edgeStyle=orthogonalEdgeStyle;rounded=0;orthogonalLoop=1;jettySize=auto;html=1;endArrow=circle;endFill=0;" parent="1" source="4za64zZnmbUG_yDpErvb-47" edge="1">
                    <mxGeometry relative="1" as="geometry">
                        <mxPoint x="40" y="80" as="targetPoint"/>
                    </mxGeometry>
                </mxCell>
                <mxCell id="4za64zZnmbUG_yDpErvb-47" value="REST API" style="rounded=0;whiteSpace=wrap;html=1;fillColor=#f5f5f5;gradientColor=#b3b3b3;strokeColor=#666666;" parent="1" vertex="1">
                    <mxGeometry x="-20" y="-20" width="120" height="60" as="geometry"/>
                </mxCell>
                <mxCell id="4za64zZnmbUG_yDpErvb-54" style="edgeStyle=orthogonalEdgeStyle;rounded=0;orthogonalLoop=1;jettySize=auto;html=1;endArrow=halfCircle;endFill=0;" parent="1" source="4za64zZnmbUG_yDpErvb-48" edge="1">
                    <mxGeometry relative="1" as="geometry">
                        <mxPoint x="140" y="10" as="targetPoint"/>
                    </mxGeometry>
                </mxCell>
                <mxCell id="4za64zZnmbUG_yDpErvb-67" value="&amp;lt;&amp;lt;HTTPs&amp;gt;&amp;gt;" style="edgeLabel;html=1;align=center;verticalAlign=middle;resizable=0;points=[];" parent="4za64zZnmbUG_yDpErvb-54" vertex="1" connectable="0">
                    <mxGeometry x="0.2143" y="5" relative="1" as="geometry">
                        <mxPoint x="5" y="-15" as="offset"/>
                    </mxGeometry>
                </mxCell>
                <mxCell id="4za64zZnmbUG_yDpErvb-77" style="edgeStyle=orthogonalEdgeStyle;rounded=0;orthogonalLoop=1;jettySize=auto;html=1;endArrow=circle;endFill=0;" parent="1" source="4za64zZnmbUG_yDpErvb-48" edge="1">
                    <mxGeometry relative="1" as="geometry">
                        <mxPoint x="290" y="-60" as="targetPoint"/>
                    </mxGeometry>
                </mxCell>
                <mxCell id="4za64zZnmbUG_yDpErvb-48" value="Web UI" style="rounded=0;whiteSpace=wrap;html=1;fillColor=#f5f5f5;gradientColor=#b3b3b3;strokeColor=#666666;" parent="1" vertex="1">
                    <mxGeometry x="230" y="-20" width="120" height="60" as="geometry"/>
                </mxCell>
                <mxCell id="4za64zZnmbUG_yDpErvb-52" style="edgeStyle=orthogonalEdgeStyle;rounded=0;orthogonalLoop=1;jettySize=auto;html=1;endArrow=halfCircle;endFill=0;" parent="1" source="4za64zZnmbUG_yDpErvb-49" edge="1">
                    <mxGeometry relative="1" as="geometry">
                        <mxPoint x="40" y="80" as="targetPoint"/>
                    </mxGeometry>
                </mxCell>
                <mxCell id="4za64zZnmbUG_yDpErvb-68" value="&amp;lt;&amp;lt;HTTPs&amp;gt;&amp;gt;" style="edgeLabel;html=1;align=center;verticalAlign=middle;resizable=0;points=[];" parent="4za64zZnmbUG_yDpErvb-52" vertex="1" connectable="0">
                    <mxGeometry x="-0.1315" y="1" relative="1" as="geometry">
                        <mxPoint as="offset"/>
                    </mxGeometry>
                </mxCell>
                <mxCell id="4za64zZnmbUG_yDpErvb-88" style="edgeStyle=orthogonalEdgeStyle;rounded=0;orthogonalLoop=1;jettySize=auto;html=1;endArrow=circle;endFill=0;" parent="1" source="4za64zZnmbUG_yDpErvb-49" edge="1">
                    <mxGeometry relative="1" as="geometry">
                        <mxPoint x="290" y="210" as="targetPoint"/>
                    </mxGeometry>
                </mxCell>
                <mxCell id="4za64zZnmbUG_yDpErvb-89" value="CLI" style="edgeLabel;html=1;align=center;verticalAlign=middle;resizable=0;points=[];" parent="4za64zZnmbUG_yDpErvb-88" vertex="1" connectable="0">
                    <mxGeometry x="-0.208" relative="1" as="geometry">
                        <mxPoint x="15" y="20" as="offset"/>
                    </mxGeometry>
                </mxCell>
                <mxCell id="4za64zZnmbUG_yDpErvb-49" value="Client" style="rounded=0;whiteSpace=wrap;html=1;fillColor=#f5f5f5;gradientColor=#b3b3b3;strokeColor=#666666;" parent="1" vertex="1">
                    <mxGeometry x="230" y="100" width="120" height="60" as="geometry"/>
                </mxCell>
                <mxCell id="4za64zZnmbUG_yDpErvb-62" style="edgeStyle=orthogonalEdgeStyle;rounded=0;orthogonalLoop=1;jettySize=auto;html=1;endArrow=halfCircle;endFill=0;" parent="1" source="4za64zZnmbUG_yDpErvb-59" edge="1">
                    <mxGeometry relative="1" as="geometry">
                        <mxPoint x="40" y="-180" as="targetPoint"/>
                        <Array as="points">
                            <mxPoint x="40" y="-150"/>
                        </Array>
                    </mxGeometry>
                </mxCell>
                <mxCell id="4za64zZnmbUG_yDpErvb-66" value="External systems" style="edgeLabel;html=1;align=center;verticalAlign=middle;resizable=0;points=[];" parent="4za64zZnmbUG_yDpErvb-62" vertex="1" connectable="0">
                    <mxGeometry x="-0.12" y="-3" relative="1" as="geometry">
                        <mxPoint as="offset"/>
                    </mxGeometry>
                </mxCell>
                <mxCell id="4za64zZnmbUG_yDpErvb-65" style="edgeStyle=orthogonalEdgeStyle;rounded=0;orthogonalLoop=1;jettySize=auto;html=1;endArrow=none;endFill=0;" parent="1" source="4za64zZnmbUG_yDpErvb-59" target="4za64zZnmbUG_yDpErvb-47" edge="1">
                    <mxGeometry relative="1" as="geometry"/>
                </mxCell>
                <mxCell id="4za64zZnmbUG_yDpErvb-59" value="" style="fontStyle=0;labelPosition=right;verticalLabelPosition=middle;align=left;verticalAlign=middle;spacingLeft=2;direction=south;" parent="1" vertex="1">
                    <mxGeometry x="25" y="-110" width="30" height="30" as="geometry"/>
                </mxCell>
                <mxCell id="4za64zZnmbUG_yDpErvb-85" style="edgeStyle=orthogonalEdgeStyle;rounded=0;orthogonalLoop=1;jettySize=auto;html=1;endArrow=none;endFill=0;" parent="1" source="4za64zZnmbUG_yDpErvb-75" edge="1">
                    <mxGeometry relative="1" as="geometry">
                        <mxPoint x="290" y="-180" as="targetPoint"/>
                    </mxGeometry>
                </mxCell>
                <mxCell id="4za64zZnmbUG_yDpErvb-86" value="&lt;span&gt;&lt;span style=&quot;font-size: 12px;&quot;&gt;Operator, Developer, User&lt;/span&gt;&lt;/span&gt;" style="edgeLabel;html=1;align=center;verticalAlign=middle;resizable=0;points=[];" parent="4za64zZnmbUG_yDpErvb-85" vertex="1" connectable="0">
                    <mxGeometry x="0.1061" y="-1" relative="1" as="geometry">
                        <mxPoint x="-1" y="-1" as="offset"/>
                    </mxGeometry>
                </mxCell>
                <mxCell id="2" style="edgeStyle=none;html=1;endArrow=halfCircle;endFill=0;" parent="1" source="4za64zZnmbUG_yDpErvb-75" edge="1">
                    <mxGeometry relative="1" as="geometry">
                        <mxPoint x="290" y="-60" as="targetPoint"/>
                    </mxGeometry>
                </mxCell>
                <mxCell id="4za64zZnmbUG_yDpErvb-75" value="" style="fontStyle=0;labelPosition=right;verticalLabelPosition=middle;align=left;verticalAlign=middle;spacingLeft=2;direction=south;" parent="1" vertex="1">
                    <mxGeometry x="275" y="-110" width="30" height="30" as="geometry"/>
                </mxCell>
                <mxCell id="3" value="&amp;lt;&amp;lt;HTTPs&amp;gt;&amp;gt;" style="edgeLabel;html=1;align=center;verticalAlign=middle;resizable=0;points=[];" parent="1" vertex="1" connectable="0">
                    <mxGeometry x="339.9956619994253" y="-47.50018534398295" as="geometry"/>
                </mxCell>
            </root>
        </mxGraphModel>
    </diagram>
</mxfile>